<svg xmlns="http://www.w3.org/2000/svg" width="1024" height="1024" viewBox="0 0 1024 1024">
  <defs>
    <linearGradient id="bg2" x1="0%" y1="0%" x2="100%" y2="100%">
      <stop offset="0%" style="stop-color:#FF6B9D"/>
      <stop offset="40%" style="stop-color:#E91E63"/>
      <stop offset="70%" style="stop-color:#C44569"/>
      <stop offset="100%" style="stop-color:#8B5CF6"/>
    </linearGradient>
    <linearGradient id="letterGrad2" x1="0%" y1="0%" x2="100%" y2="100%">
      <stop offset="0%" style="stop-color:#C44569"/>
      <stop offset="100%" style="stop-color:#8B5CF6"/>
    </linearGradient>
    <linearGradient id="heartGrad2" x1="0%" y1="0%" x2="100%" y2="100%">
      <stop offset="0%" style="stop-color:#FF1744"/>
      <stop offset="100%" style="stop-color:#FF6B9D"/>
    </linearGradient>
  </defs>
  <!-- Background with padding for adaptive icon safe zone -->
  <rect width="1024" height="1024" fill="url(#bg2)"/>
  <!-- Main white card - centered for safe zone -->
  <rect x="212" y="280" width="600" height="400" rx="50" fill="white" opacity="0.95"/>
  <!-- Letter H -->
  <text x="280" y="550" font-family="Georgia, serif" font-size="240" font-weight="bold" fill="url(#letterGrad2)">H</text>
  <!-- Heart -->
  <path d="M512 380 C512 345, 555 310, 590 310 C640 310, 675 360, 675 395 C675 470, 512 570, 512 570 C512 570, 349 470, 349 395 C349 360, 384 310, 434 310 C469 310, 512 345, 512 380Z" fill="url(#heartGrad2)"/>
  <!-- Letter A -->
  <text x="540" y="550" font-family="Georgia, serif" font-size="240" font-weight="bold" fill="url(#letterGrad2)">A</text>
</svg>