<svg xmlns="http://www.w3.org/2000/svg" width="48" height="48" viewBox="0 0 48 48">
  <defs>
    <linearGradient id="bg4" x1="0%" y1="0%" x2="100%" y2="100%">
      <stop offset="0%" style="stop-color:#FF6B9D"/>
      <stop offset="50%" style="stop-color:#E91E63"/>
      <stop offset="100%" style="stop-color:#8B5CF6"/>
    </linearGradient>
    <linearGradient id="letterGrad4" x1="0%" y1="0%" x2="100%" y2="100%">
      <stop offset="0%" style="stop-color:#C44569"/>
      <stop offset="100%" style="stop-color:#8B5CF6"/>
    </linearGradient>
  </defs>
  <rect width="48" height="48" rx="12" fill="url(#bg4)"/>
  <rect x="6" y="10" width="36" height="25" rx="6" fill="white" opacity="0.95"/>
  <text x="9" y="30" font-family="Georgia, serif" font-size="16" font-weight="bold" fill="url(#letterGrad4)">H</text>
  <path d="M24 16 C24 14, 26.5 12, 28.5 12 C31.5 12, 33.5 15, 33.5 17 C33.5 21, 24 27, 24 27 C24 27, 14.5 21, 14.5 17 C14.5 15, 16.5 12, 19.5 12 C21.5 12, 24 14, 24 16Z" fill="#FF1744" transform="scale(0.55) translate(19.5, 13)"/>
  <text x="26" y="30" font-family="Georgia, serif" font-size="16" font-weight="bold" fill="url(#letterGrad4)">A</text>
</svg>