<svg xmlns="http://www.w3.org/2000/svg" width="1024" height="1024" viewBox="0 0 1024 1024">
  <defs>
    <linearGradient id="bg" x1="0%" y1="0%" x2="100%" y2="100%">
      <stop offset="0%" style="stop-color:#E91E63"/>
      <stop offset="50%" style="stop-color:#C2185B"/>
      <stop offset="100%" style="stop-color:#880E4F"/>
    </linearGradient>
    <filter id="shadow">
      <feDropShadow dx="0" dy="6" stdDeviation="10" flood-color="rgba(0,0,0,0.5)"/>
    </filter>
    <filter id="textShadow">
      <feDropShadow dx="2" dy="4" stdDeviation="4" flood-color="rgba(0,0,0,0.4)"/>
    </filter>
  </defs>
  <!-- Background -->
  <rect width="1024" height="1024" rx="220" fill="url(#bg)"/>
  <!-- Subtle glow -->
  <circle cx="180" cy="180" r="140" fill="white" opacity="0.06"/>
  <circle cx="850" cy="850" r="170" fill="white" opacity="0.04"/>
  <!-- Letter H - WHITE -->
  <text x="170" y="610" font-family="Georgia, 'Times New Roman', serif" font-size="400" font-weight="bold" fill="white" filter="url(#textShadow)">H</text>
  <!-- Heart between letters - small and centered -->
  <path d="M512 320 C512 288, 542 260, 567 260 C602 260, 627 292, 627 320 C627 375, 512 445, 512 445 C512 445, 397 375, 397 320 C397 292, 422 260, 457 260 C482 260, 512 288, 512 320Z" fill="#FF1744" filter="url(#shadow)"/>
  <path d="M512 340 C512 330, 523 322, 532 322 C545 322, 553 334, 553 340 C553 356, 512 378, 512 378 C512 378, 471 356, 471 340 C471 334, 479 322, 492 322 C501 322, 512 330, 512 340Z" fill="white" opacity="0.35"/>
  <!-- Letter A - WHITE -->
  <text x="510" y="610" font-family="Georgia, 'Times New Roman', serif" font-size="400" font-weight="bold" fill="white" filter="url(#textShadow)">A</text>
  <!-- App name -->
  <text x="512" y="810" font-family="Georgia, 'Times New Roman', serif" font-size="72" font-weight="bold" fill="white" text-anchor="middle" filter="url(#textShadow)">HANI 2</text>
  <text x="512" y="875" font-family="Arial, Helvetica, sans-serif" font-size="30" fill="rgba(255,255,255,0.8)" text-anchor="middle">Votre espace couple</text>
</svg>