<svg xmlns="http://www.w3.org/2000/svg" width="1284" height="2778" viewBox="0 0 1284 2778">
  <defs>
    <linearGradient id="bg3" x1="0%" y1="0%" x2="100%" y2="100%">
      <stop offset="0%" style="stop-color:#E91E63"/>
      <stop offset="50%" style="stop-color:#C2185B"/>
      <stop offset="100%" style="stop-color:#880E4F"/>
    </linearGradient>
    <filter id="textShadow3">
      <feDropShadow dx="2" dy="5" stdDeviation="5" flood-color="rgba(0,0,0,0.45)"/>
    </filter>
    <filter id="shadow3">
      <feDropShadow dx="0" dy="5" stdDeviation="8" flood-color="rgba(0,0,0,0.4)"/>
    </filter>
  </defs>
  <!-- Background -->
  <rect width="1284" height="2778" fill="url(#bg3)"/>
  <!-- Subtle decor -->
  <circle cx="200" cy="500" r="200" fill="white" opacity="0.04"/>
  <circle cx="1084" cy="2300" r="250" fill="white" opacity="0.03"/>
  <!-- Letter H - WHITE -->
  <text x="330" y="1480" font-family="Georgia, 'Times New Roman', serif" font-size="400" font-weight="bold" fill="white" filter="url(#textShadow3)">H</text>
  <!-- Heart -->
  <path d="M642 1150 C642 1115, 675 1085, 700 1085 C735 1085, 762 1118, 762 1150 C762 1210, 642 1290, 642 1290 C642 1290, 522 1210, 522 1150 C522 1118, 549 1085, 584 1085 C609 1085, 642 1115, 642 1150Z" fill="#FF1744" filter="url(#shadow3)"/>
  <path d="M642 1170 C642 1162, 651 1154, 658 1154 C668 1154, 675 1164, 675 1170 C675 1183, 642 1200, 642 1200 C642 1200, 609 1183, 609 1170 C609 1164, 616 1154, 626 1154 C633 1154, 642 1162, 642 1170Z" fill="white" opacity="0.35"/>
  <!-- Letter A - WHITE -->
  <text x="650" y="1480" font-family="Georgia, 'Times New Roman', serif" font-size="400" font-weight="bold" fill="white" filter="url(#textShadow3)">A</text>
  <!-- App name -->
  <text x="642" y="1680" font-family="Georgia, 'Times New Roman', serif" font-size="100" font-weight="bold" fill="white" text-anchor="middle" filter="url(#textShadow3)">HANI 2</text>
  <text x="642" y="1770" font-family="Arial, Helvetica, sans-serif" font-size="40" fill="rgba(255,255,255,0.8)" text-anchor="middle">Votre espace couple privé</text>
</svg>